<svg width="1107" height="1180" viewBox="0 0 1107 1180" fill="none" xmlns="http://www.w3.org/2000/svg">
<g clip-path="url(#clip0_201_19)">
<path d="M730.304 1075.79C729.026 1075.79 728.067 1075.15 727.109 1074.19L422.644 695.555C421.366 693.957 421.685 691.401 423.283 690.123C424.88 688.845 427.436 689.165 428.714 690.762L733.179 1069.4C734.457 1070.99 734.137 1073.55 732.54 1074.83C732.22 1075.47 731.262 1075.79 730.304 1075.79Z" fill="#86C123"/>
<path d="M258.111 1075.79C257.153 1075.79 256.514 1075.47 255.555 1074.83C253.958 1073.55 253.639 1070.99 254.916 1069.4L559.381 690.762C560.659 689.165 563.215 688.845 564.813 690.123C566.41 691.401 566.73 693.957 565.452 695.555L260.987 1074.19C260.348 1075.15 259.07 1075.79 258.111 1075.79Z" fill="#9BD637"/>
<path d="M562.576 1075.79C561.298 1075.79 560.34 1075.15 559.381 1074.19L254.916 695.555C253.639 693.957 253.958 691.401 255.555 690.123C257.153 688.845 259.709 689.165 260.987 690.762L565.452 1069.4C566.73 1070.99 566.41 1073.55 564.813 1074.83C564.174 1075.47 563.535 1075.79 562.576 1075.79Z" fill="#9BD637"/>
<path d="M312.104 703.224H170.574C165.142 703.224 160.67 698.75 160.67 693.318C160.67 687.886 165.142 683.413 170.574 683.413H312.104C317.535 683.413 322.007 687.886 322.007 693.318C322.007 698.75 317.535 703.224 312.104 703.224Z" fill="#86C123"/>
<path d="M719.122 703.224H314.659C309.228 703.224 304.755 698.75 304.755 693.318C304.755 687.886 309.228 683.413 314.659 683.413H718.802V703.224H719.122Z" fill="#9BD637"/>
<path d="M421.366 882.476C421.366 888.547 416.574 893.34 410.504 893.34C404.433 893.34 399.641 888.547 399.641 882.476C399.641 876.405 404.433 871.612 410.504 871.612C416.254 871.612 421.366 876.405 421.366 882.476Z" fill="#86C123"/>
<path d="M589.093 882.476C589.093 888.547 584.301 893.34 578.231 893.34C572.161 893.34 567.368 888.547 567.368 882.476C567.368 876.405 572.161 871.612 578.231 871.612C584.301 871.612 589.093 876.405 589.093 882.476Z" fill="#FFC947"/>
<path d="M443.091 383.061H300.602C293.574 383.061 287.823 377.31 287.823 370.28V264.198C287.823 257.169 293.574 251.417 300.602 251.417H443.091C450.119 251.417 455.87 257.169 455.87 264.198V370.28C455.87 377.31 450.119 383.061 443.091 383.061Z" fill="#2568EF"/>
<path d="M408.267 309.571H402.836C401.878 306.695 400.919 303.819 399.322 301.583L403.475 297.429C405.072 295.831 405.072 293.275 403.475 291.678L397.724 285.926C396.127 284.329 393.571 284.329 391.974 285.926L387.501 290.399C385.265 289.121 382.389 287.843 379.833 287.204V280.814C379.833 278.577 377.916 276.979 376 276.979H368.013C365.776 276.979 364.179 278.897 364.179 280.814V287.524C361.623 288.163 359.067 289.121 356.831 290.399L352.039 285.607C350.441 284.009 347.885 284.009 346.288 285.607L340.537 291.358C338.94 292.956 338.94 295.512 340.537 297.109L345.01 301.583C343.413 303.819 342.454 306.376 341.496 309.251H335.426C333.189 309.251 331.592 311.168 331.592 313.086V321.074C331.592 323.31 333.509 324.908 335.426 324.908H340.857C341.496 327.784 342.454 330.659 344.052 333.535L340.218 337.369C338.62 338.967 338.62 341.523 340.218 343.121L345.968 348.872C347.566 350.47 350.122 350.47 351.719 348.872L354.914 345.677C357.47 347.275 360.665 348.872 363.54 349.511V353.985C363.54 356.221 365.457 357.819 367.374 357.819H375.361C377.597 357.819 379.194 355.902 379.194 353.985V349.831C382.389 349.192 385.584 347.914 388.14 346.316L391.335 349.511C392.932 351.109 395.488 351.109 397.085 349.511L402.836 343.76C404.433 342.162 404.433 339.606 402.836 338.008L399.641 334.813C401.239 332.257 402.517 329.062 403.155 325.867H407.948C410.184 325.867 411.781 323.949 411.781 322.032V314.044C412.101 311.488 410.504 309.571 408.267 309.571ZM376 338.328C361.623 341.204 349.163 328.742 352.039 314.364C353.636 306.376 360.026 299.985 368.013 298.388C382.389 295.512 394.849 307.973 391.974 322.352C390.696 330.34 383.987 337.05 376 338.328Z" fill="white"/>
<path d="M657.462 310.529H514.974C507.945 310.529 502.194 304.778 502.194 297.748V191.667C502.194 184.637 507.945 178.886 514.974 178.886H657.462C664.491 178.886 670.241 184.637 670.241 191.667V297.748C670.241 304.778 664.491 310.529 657.462 310.529Z" fill="#9BD637"/>
<path d="M557.784 266.755C556.826 266.755 555.867 266.435 554.909 265.477L537.337 246.625C535.74 245.027 535.74 242.471 537.337 240.554L555.228 221.383C556.826 219.785 559.382 219.785 560.659 221.383C562.257 222.98 562.257 225.536 560.659 227.453L545.324 243.749L560.34 259.725C561.937 261.323 561.937 263.879 560.34 265.796C560.02 266.435 559.062 266.755 557.784 266.755Z" fill="white"/>
<path d="M614.652 266.755C613.693 266.755 612.735 266.435 611.776 265.477C610.179 263.879 610.179 261.323 611.776 259.406L626.792 243.43L611.457 227.134C609.859 225.536 609.859 222.98 611.457 221.063C613.054 219.465 615.61 219.465 616.888 221.063L634.779 240.234C635.418 240.873 636.057 242.152 636.057 243.11C636.057 244.069 635.737 245.347 634.779 245.986L617.207 264.838C616.568 266.435 615.61 266.755 614.652 266.755Z" fill="white"/>
<path d="M577.592 271.867C576.953 271.867 576.633 271.867 575.994 271.548C574.078 270.589 573.119 268.352 573.758 266.116L591.33 219.785C592.288 217.548 594.524 216.59 596.441 217.548C598.358 218.507 599.317 220.743 598.678 222.98L581.106 269.311C580.467 270.909 579.189 271.867 577.592 271.867Z" fill="white"/>
<path d="M786.213 335.772H432.548V324.908C432.548 322.032 434.784 319.476 437.979 319.476H781.101C783.976 319.476 786.532 321.713 786.532 324.908V335.772H786.213Z" fill="white"/>
<path d="M776.309 524.291H442.452C437.02 524.291 432.548 519.817 432.548 514.385V335.772H786.213V514.385C786.213 519.817 781.74 524.291 776.309 524.291Z" fill="#383873"/>
<path d="M769.28 327.464C769.28 328.742 768.322 330.02 766.724 330.02C765.446 330.02 764.168 329.062 764.168 327.464C764.168 326.186 765.127 324.908 766.724 324.908C768.002 325.227 769.28 326.186 769.28 327.464Z" fill="#9BD637"/>
<path d="M752.028 327.464C752.028 328.742 751.07 330.02 749.472 330.02C748.194 330.02 746.916 329.062 746.916 327.464C746.916 326.186 747.875 324.908 749.472 324.908C751.07 325.227 752.028 326.186 752.028 327.464Z" fill="#9BD637"/>
<path d="M735.096 327.464C735.096 328.742 734.137 330.02 732.54 330.02C731.262 330.02 729.984 329.062 729.984 327.464C729.984 326.186 730.942 324.908 732.54 324.908C733.818 325.227 735.096 326.186 735.096 327.464Z" fill="#9BD637"/>
<path d="M647.239 361.014H450.758C448.841 361.014 447.244 359.417 447.244 357.499C447.244 355.582 448.841 353.985 450.758 353.985H647.239C649.155 353.985 650.753 355.582 650.753 357.499C650.753 359.736 649.155 361.014 647.239 361.014Z" fill="#2568EF"/>
<path d="M647.239 383.061H450.758C448.841 383.061 447.244 381.464 447.244 379.547C447.244 377.629 448.841 376.032 450.758 376.032H647.239C649.155 376.032 650.753 377.629 650.753 379.547C650.753 381.464 649.155 383.061 647.239 383.061Z" fill="#2568EF"/>
<path d="M553.631 404.789H451.077C449.161 404.789 447.563 403.191 447.563 401.274C447.563 399.357 449.161 397.759 451.077 397.759H553.631C555.548 397.759 557.145 399.357 557.145 401.274C557.145 403.191 555.548 404.789 553.631 404.789Z" fill="#2568EF"/>
<path d="M647.239 448.244H450.758C448.841 448.244 447.244 446.646 447.244 444.729C447.244 442.812 448.841 441.215 450.758 441.215H647.239C649.155 441.215 650.753 442.812 650.753 444.729C650.753 446.646 649.155 448.244 647.239 448.244Z" fill="#9BD637"/>
<path d="M553.631 469.972H451.077C449.161 469.972 447.563 468.374 447.563 466.457C447.563 464.54 449.161 462.942 451.077 462.942H553.631C555.548 462.942 557.145 464.54 557.145 466.457C557.145 468.374 555.548 469.972 553.631 469.972Z" fill="#9BD637"/>
<path d="M553.631 491.699H451.077C449.161 491.699 447.563 490.102 447.563 488.184C447.563 486.267 449.161 484.67 451.077 484.67H553.631C555.548 484.67 557.145 486.267 557.145 488.184C557.145 490.102 555.548 491.699 553.631 491.699Z" fill="#2568EF"/>
<path d="M647.239 404.789H573.439C571.522 404.789 569.924 403.191 569.924 401.274C569.924 399.357 571.522 397.759 573.439 397.759H647.239C649.155 397.759 650.753 399.357 650.753 401.274C650.753 403.191 649.155 404.789 647.239 404.789Z" fill="white"/>
<path d="M744.68 355.902L692.605 407.984C691.327 409.262 689.09 409.262 687.813 407.984C686.535 406.706 686.535 404.469 687.813 403.191L739.888 351.109C741.166 349.831 743.402 349.831 744.68 351.109C745.958 352.387 745.958 354.624 744.68 355.902Z" fill="#9BD637"/>
<path d="M746.171 461.656C750.079 445.172 739.886 428.641 723.405 424.733C706.924 420.825 690.395 431.019 686.487 447.503C682.58 463.986 692.773 480.517 709.254 484.425C725.735 488.333 742.264 478.139 746.171 461.656Z" fill="#9BD637"/>
<path d="M712.093 476.043C712.093 485.628 704.426 493.616 694.522 493.616C684.937 493.616 676.95 485.948 676.95 476.043C676.95 466.457 684.618 458.469 694.522 458.469C704.426 458.469 712.093 466.457 712.093 476.043Z" fill="#2568EF"/>
<path d="M432.548 505.119V567.426L489.735 510.231" fill="#383873"/>
<path d="M371.846 584.042H497.083L542.449 671.591H417.213L371.846 584.042Z" fill="#86BFBC"/>
<path d="M419.768 664.881L382.07 592.669C381.431 591.071 382.389 589.473 383.987 589.473H492.61C493.568 589.473 494.207 589.793 494.527 590.752L532.226 662.964C532.864 664.561 531.906 666.159 530.309 666.159H421.685C420.727 666.159 420.088 665.84 419.768 664.881Z" fill="white"/>
<path d="M518.807 671.591H417.213V683.094H518.807V671.591Z" fill="#B8E3E2"/>
<path d="M606.026 671.591H505.709C502.514 671.591 499.958 674.147 499.958 677.342C499.958 680.537 502.514 683.094 505.709 683.094H606.026C609.22 683.094 611.776 680.537 611.776 677.342C611.776 674.147 609.22 671.591 606.026 671.591Z" fill="#9FCCC9"/>
<path d="M417.213 671.591L371.846 584.361L369.61 585.959C368.013 586.917 367.693 589.154 368.652 590.752L417.213 683.413V671.591Z" fill="#B8E3E2"/>
<path d="M462.898 677.023H451.716V678.94H462.898V677.023Z" fill="#9FCCC9"/>
<path d="M476.955 677.023H465.774V678.94H476.955V677.023Z" fill="#9FCCC9"/>
<path d="M491.013 677.023H479.831V678.94H491.013V677.023Z" fill="#9FCCC9"/>
<path d="M645.961 842.536C645.961 842.536 541.81 923.695 525.517 944.144C519.446 951.813 508.584 965.552 497.083 979.611C478.553 1002.62 459.065 1026.58 456.828 1027.22C452.995 1028.18 422.005 1004.53 421.046 999.422C420.407 996.226 448.841 947.339 473.441 908.357C488.457 884.393 501.875 864.263 506.667 859.79C519.127 847.968 596.761 807.069 596.761 807.069L645.961 842.536Z" fill="#383873"/>
<path opacity="0.15" d="M447.244 1009.65C447.244 1009.65 544.366 871.293 593.246 847.968" stroke="black" stroke-width="0.8185" stroke-miterlimit="10" stroke-linecap="round"/>
<path d="M754.265 487.226C753.306 489.782 752.028 492.338 750.431 494.894C742.763 509.592 748.514 523.971 739.888 527.805C739.249 528.125 738.93 528.125 738.291 528.444C727.109 531 701.231 515.983 700.272 508.634C698.995 501.285 708.259 488.504 700.272 486.906C692.285 485.309 688.132 498.728 688.132 498.728C681.743 499.368 679.187 488.504 668.644 488.504C667.046 488.504 665.769 488.823 664.171 489.143C659.059 490.421 654.587 493.616 652.031 495.853C649.795 497.45 648.836 499.048 648.836 499.048C648.836 499.048 639.252 492.977 639.891 481.155C640.53 462.303 647.558 448.563 664.491 445.688C666.408 424.599 683.659 413.416 706.662 412.777C726.789 412.138 729.984 430.35 730.304 434.824C729.984 431.309 729.026 420.445 724.233 412.777C734.457 412.457 743.402 419.487 740.846 443.131C743.083 436.102 751.389 431.629 757.459 436.741C751.709 436.741 745.958 446.646 745.958 446.646C745.958 446.646 752.667 451.119 757.459 459.108C760.974 465.178 759.376 475.084 754.265 487.226Z" fill="#B9A17E"/>
<path d="M739.888 527.805L739.569 531.32L738.61 543.462C738.61 543.462 720.08 559.438 709.537 543.462C709.537 543.462 709.537 543.142 709.218 543.142C706.023 538.349 703.148 536.432 700.272 536.113C694.522 535.474 689.73 541.225 684.937 534.835C670.88 517.261 665.449 496.811 663.852 488.504C665.449 488.184 666.727 487.865 668.324 487.865C679.187 487.865 681.423 498.729 687.813 498.09C687.813 498.09 691.966 484.67 699.953 486.267C707.94 487.865 698.675 500.646 699.953 507.995C700.592 511.19 705.704 515.983 712.732 520.137C720.719 524.929 730.623 528.764 737.013 528.125C737.332 528.125 737.652 528.125 738.291 527.805C738.61 528.125 739.249 527.805 739.888 527.805Z" fill="#FFAD94"/>
<path opacity="0.25" d="M742.763 550.491C734.457 556.243 719.122 557.201 719.122 557.201L706.662 555.284C706.662 555.284 701.55 547.616 703.787 543.462C704.106 542.503 705.384 541.545 706.981 540.267C710.496 537.391 715.927 533.876 721.358 531C727.109 528.125 733.179 525.569 737.332 525.249C747.875 524.61 751.07 544.74 742.763 550.491Z" fill="black"/>
<path d="M740.208 754.347C721.358 757.862 681.743 746.998 662.893 738.371C657.143 735.815 653.628 733.578 652.67 731.981C649.155 725.59 652.67 720.797 661.615 700.348C662.574 698.111 663.852 695.555 664.81 692.999C670.88 678.62 670.88 647.946 670.88 621.426C670.88 598.739 670.561 579.249 674.394 575.734C682.062 568.065 721.358 543.462 721.358 543.462L729.026 584.041C729.026 584.041 733.498 604.491 737.971 631.331C746.597 680.537 755.862 751.472 740.208 754.347Z" fill="#2568EF"/>
<path d="M753.306 772.56C753.306 774.477 734.776 817.933 719.122 824.003C703.467 830.074 609.22 823.364 609.22 823.364L562.576 853.719L572.48 945.422L579.189 1009.33L579.509 1011.24C565.132 1020.51 529.35 1023.07 525.517 1015.08C521.683 1007.09 464.496 834.867 486.859 805.152C509.223 775.436 652.67 731.661 652.67 731.661C656.504 733.898 660.657 736.134 665.449 738.052C681.423 744.442 701.55 748.596 717.205 751.152C723.275 752.111 728.387 752.75 732.22 753.069C737.332 753.708 740.208 754.028 740.208 754.028C740.208 754.028 753.306 770.643 753.306 772.56Z" fill="#383873"/>
<path d="M585.259 1071.63H464.176C463.537 1069.4 464.496 1067.16 466.093 1065.24C470.885 1059.49 483.345 1053.42 495.166 1048.31C506.348 1043.52 517.21 1039.36 521.044 1036.49C529.67 1029.78 525.517 1016.68 525.517 1015.72C526.794 1018.27 531.906 1019.87 538.296 1020.51C551.075 1021.47 570.244 1018.27 579.509 1012.2L579.189 1010.29C582.704 1017.32 584.62 1051.18 584.94 1065.88C585.259 1069.08 585.259 1071.63 585.259 1071.63Z" fill="#0C2059"/>
<path d="M537.976 1020.19C537.657 1025.94 536.698 1035.21 535.101 1037.76C532.545 1041.6 506.028 1054.7 502.195 1053.42C499.639 1052.78 496.763 1049.91 495.166 1048.31C506.348 1043.52 517.21 1039.36 521.044 1036.49C529.67 1029.78 525.517 1016.68 525.517 1015.72C526.475 1018.27 531.587 1019.87 537.976 1020.19Z" fill="#2E4780"/>
<path d="M585.259 1071.63H464.176C463.537 1069.4 464.496 1067.16 466.093 1065.24H584.94C585.259 1069.08 585.259 1071.63 585.259 1071.63Z" fill="#2E4780"/>
<path d="M456.509 1026.9C456.509 1026.9 447.244 1051.18 439.257 1063.97C436.062 1069.08 433.187 1072.27 430.95 1071.63C423.602 1068.76 348.524 1005.17 355.872 1000.38C356.831 999.741 358.748 999.102 360.665 999.102C367.054 998.144 377.917 999.102 387.82 1000.06C396.446 1001.02 404.433 1001.98 408.587 1001.98C419.13 1001.98 420.407 998.783 420.407 998.783C420.727 1000.06 422.644 1002.3 425.519 1005.17C435.104 1014.12 453.633 1027.54 456.509 1026.9Z" fill="#0C2059"/>
<path d="M425.839 1005.49C409.865 1016.04 393.571 1009.65 390.057 1007.41C387.501 1005.81 387.501 1002.3 387.82 1000.38C396.446 1001.34 404.433 1002.3 408.587 1002.3C419.13 1002.3 420.407 999.102 420.407 999.102C421.046 1000.06 422.963 1002.62 425.839 1005.49Z" fill="#2E4780"/>
<path d="M439.257 1063.97C436.062 1069.08 433.187 1072.27 430.95 1071.63C423.602 1068.76 348.524 1005.17 355.872 1000.38C356.831 999.741 358.748 999.102 360.665 999.102L439.257 1063.97Z" fill="#2E4780"/>
<path d="M662.893 675.105C657.143 683.413 646.6 695.555 637.974 694.596C637.654 694.596 637.335 694.596 637.015 694.277C620.402 691.401 523.6 667.117 519.127 666.159C514.335 665.2 481.748 664.881 483.665 661.366C485.582 657.851 504.111 646.987 509.223 647.307C514.335 647.626 533.823 653.378 553.311 652.739C572.8 652.1 624.236 652.739 624.236 652.739L626.792 648.585L630.306 642.195C629.028 661.046 652.031 676.703 662.893 675.105Z" fill="#FFAD94"/>
<path opacity="0.15" d="M662.893 746.04C662.893 746.04 658.42 769.684 675.672 777.672" stroke="black" stroke-width="0.8185" stroke-miterlimit="10" stroke-linecap="round"/>
<path opacity="0.15" d="M653.948 764.892C653.948 764.892 538.935 814.098 533.184 829.116C527.753 844.453 562.576 1009.33 562.576 1009.33" stroke="black" stroke-width="0.8185" stroke-miterlimit="10" stroke-linecap="round"/>
<path opacity="0.15" d="M753.306 772.56C753.306 774.477 734.776 817.933 719.122 824.003C703.467 830.074 609.22 823.364 609.22 823.364L562.576 853.719L572.48 945.422C572.48 945.422 552.672 840.619 552.672 833.589C552.672 827.838 682.701 790.453 717.205 751.152C730.623 753.389 740.527 754.028 740.527 754.028C740.527 754.028 753.306 770.643 753.306 772.56Z" fill="black"/>
<path opacity="0.25" d="M691.966 661.366C683.979 672.869 670.88 687.247 661.615 700.667C662.574 698.431 663.852 695.874 664.81 693.318C670.88 678.94 670.88 648.265 670.88 621.745L698.675 603.213C698.994 602.893 705.065 642.833 691.966 661.366Z" fill="black"/>
<path d="M668.005 671.591C666.727 672.549 665.449 673.827 664.491 674.786C664.171 674.786 663.532 675.105 662.893 675.105C652.031 676.703 629.028 661.046 629.987 642.194C629.987 640.916 631.265 638.041 632.862 634.206C642.127 615.354 670.241 573.177 675.672 575.094C675.672 575.094 693.883 577.97 698.675 602.574C703.467 625.899 686.854 654.017 668.005 671.591Z" fill="#155BCC"/>
<path opacity="0.25" d="M732.22 753.708C728.387 753.389 722.956 752.43 717.205 751.791C701.87 749.235 681.423 745.401 665.449 738.691C679.506 738.052 709.537 728.785 713.371 660.088C714.969 672.869 717.524 686.289 721.039 700.028C725.511 717.922 729.665 737.093 732.22 753.708Z" fill="black"/>
<path opacity="0.25" d="M724.872 526.207C723.275 527.805 722.317 529.403 721.358 530.681C715.607 533.556 710.176 537.071 706.981 539.947C704.745 537.391 702.509 536.432 700.272 536.113L712.732 520.456C716.566 523.012 720.719 524.929 724.872 526.207Z" fill="black"/>
<path opacity="0.25" d="M662.893 675.105C657.143 683.413 646.6 695.555 637.974 694.596C637.654 694.596 637.335 694.596 637.015 694.277C626.472 678.94 625.833 658.49 626.472 648.585L629.987 642.195C629.028 661.046 652.031 676.703 662.893 675.105Z" fill="black"/>
<path opacity="0.25" d="M754.265 487.226C753.306 489.782 752.028 492.338 750.431 494.894C746.597 501.924 746.278 509.273 745.639 515.024C744.361 514.066 743.083 513.107 741.805 512.468C733.818 517.261 728.387 522.373 724.872 526.527C713.371 522.373 700.911 513.746 699.953 508.634C698.675 501.285 707.94 488.504 699.953 486.906C691.966 485.309 687.813 498.729 687.813 498.729C681.423 499.368 678.867 488.504 668.324 488.504C666.727 488.504 665.449 488.823 663.852 489.143C658.74 490.421 654.267 493.616 651.711 495.853C651.711 495.853 663.852 478.918 682.701 482.433C682.701 482.433 679.826 477.001 667.046 477.64C693.883 469.013 710.815 472.208 719.122 482.113C725.511 489.462 741.485 499.368 754.265 487.226Z" fill="black"/>
<path d="M808.576 854.039H715.288C715.288 854.039 789.088 832.311 789.088 685.65C789.088 683.733 789.088 681.815 789.088 679.898C788.449 581.805 767.363 527.805 741.485 512.468C749.472 507.675 760.335 503.202 774.392 500.007C780.462 498.729 787.49 497.45 794.839 496.811C858.735 490.421 909.532 515.344 915.602 543.781C922.311 571.58 884.932 854.039 808.576 854.039Z" fill="url(#paint0_linear_201_19)"/>
<path d="M789.407 685.33C789.407 831.991 715.607 853.719 715.607 853.719H562.896L569.285 849.246L609.54 823.364L690.368 817.613C694.841 799.72 706.662 799.08 724.553 797.163C735.096 796.205 736.054 778.311 732.859 754.986C730.623 738.051 726.15 718.241 721.358 699.709C717.844 685.969 715.288 672.549 713.691 659.768C711.774 644.751 710.815 630.372 710.815 616.633C710.496 585.639 714.329 559.438 718.163 540.266C718.483 538.349 718.802 536.752 719.441 534.835C719.441 534.835 719.441 534.835 719.441 534.515C719.761 533.556 721.358 530.361 725.192 525.888C728.706 521.734 734.137 516.941 742.124 511.829C743.402 512.468 744.68 513.426 745.958 514.385C769.919 532.598 788.768 586.278 789.727 679.259C789.407 681.815 789.407 683.732 789.407 685.33Z" fill="url(#paint1_linear_201_19)"/>
<path d="M759.696 1071.63H649.794C645.961 1071.63 644.363 1066.84 647.239 1064.6L674.714 1043.2C686.854 1033.61 694.202 1018.91 694.202 1003.58V854.039H715.288V1003.58C715.288 1019.23 722.317 1033.61 734.776 1043.2L762.252 1064.6C765.127 1066.84 763.53 1071.63 759.696 1071.63Z" fill="url(#paint2_linear_201_19)"/>
<g opacity="0.25">
<g opacity="0.25">
<path opacity="0.25" d="M843.719 502.243C843.719 502.243 844.678 504.161 845.955 508.314" stroke="black" stroke-width="0.8185" stroke-miterlimit="10" stroke-linecap="round"/>
<path opacity="0.25" d="M849.47 521.095C853.304 535.154 858.096 556.882 861.93 586.598C871.833 663.922 861.93 772.241 794.519 840.619" stroke="black" stroke-width="0.8185" stroke-miterlimit="10" stroke-linecap="round" stroke-dasharray="4.15 4.15"/>
<path opacity="0.25" d="M790.046 845.412C788.449 847.009 786.852 848.287 785.254 849.885" stroke="black" stroke-width="0.8185" stroke-miterlimit="10" stroke-linecap="round"/>
</g>
</g>
<path opacity="0.15" d="M715.288 854.039V894.938C707.94 898.772 700.592 901.648 694.202 903.884V854.039H715.288Z" fill="black"/>
<path opacity="0.15" d="M744.68 790.453C739.568 806.11 708.579 803.234 705.065 814.737C697.078 839.021 692.605 828.477 661.935 831.352C644.363 833.269 631.584 844.453 623.916 853.719H562.896L569.285 849.246L609.54 823.364L690.368 817.613C694.841 799.72 706.662 799.08 724.553 797.163C735.096 796.205 736.054 778.311 732.859 754.986C730.623 738.051 726.15 718.241 721.358 699.709C717.844 685.969 715.288 672.549 713.691 659.768C711.774 644.751 710.815 630.372 710.815 616.633C722.317 678.94 748.194 778.95 744.68 790.453Z" fill="black"/>
<path opacity="0.15" d="M789.407 685.33C789.407 683.413 789.407 681.496 789.407 679.579C788.768 581.485 767.683 527.486 741.805 512.148C749.792 507.356 760.654 502.882 774.711 499.687C770.558 505.758 766.085 515.024 768.002 524.929C771.836 542.503 814.007 609.603 797.714 716.963C785.893 794.607 790.046 834.867 802.187 853.719H715.288C715.288 854.039 789.407 831.991 789.407 685.33Z" fill="black"/>
<path opacity="0.25" d="M255.875 605.449C255.875 608.964 255.555 612.159 254.916 615.035H224.885C215.94 609.284 201.563 597.461 192.937 580.207C200.924 588.834 214.662 599.698 228.719 602.893C241.179 605.769 250.124 604.491 255.875 605.449Z" fill="black"/>
<path d="M325.522 486.587C322.327 498.729 306.672 522.373 292.935 547.616C277.6 575.095 263.862 604.81 269.293 623.343C270.571 628.136 271.21 631.65 271.21 633.887C271.21 642.195 265.14 639.638 258.75 634.846C252.361 630.053 245.971 623.343 245.971 623.343L246.291 586.917C246.291 586.917 225.844 568.065 242.457 526.527C243.415 523.971 244.693 521.095 246.291 518.219C269.613 471.25 304.436 421.723 271.53 407.664C317.215 405.108 332.55 461.025 325.522 486.587Z" fill="#2568EF"/>
<g opacity="0.53">
<path opacity="0.53" d="M271.529 407.984C280.155 409.901 287.503 415.652 292.296 423.002C293.574 424.919 294.532 426.836 295.49 428.753C296.129 430.67 297.088 432.907 297.727 434.824C298.366 437.061 299.005 438.978 299.324 441.214L299.963 444.41L300.283 447.605C299.963 456.551 297.407 464.859 294.532 473.167C291.337 481.474 287.823 489.462 284.309 497.45C276.961 513.427 269.293 528.764 262.265 544.74C258.75 552.728 255.555 560.716 253 569.024C251.722 573.178 250.763 577.331 250.124 581.485C249.485 585.639 249.485 590.112 251.083 593.947C251.402 594.586 251.083 595.225 250.124 595.544C249.485 595.864 248.846 595.544 248.527 594.586C246.929 590.112 247.249 585.319 247.568 581.166C248.207 576.692 249.166 572.539 250.444 568.385C253 560.077 256.514 551.769 260.028 543.781C267.057 527.805 275.363 512.468 282.711 496.492C286.545 488.504 290.059 480.835 293.254 472.528C296.129 464.54 299.005 455.912 299.324 447.285V444.09L298.685 440.895C298.366 438.658 297.727 436.741 297.407 434.504C296.768 432.268 296.129 430.351 295.171 428.433C294.213 426.516 293.254 424.599 291.976 422.682C287.503 415.652 280.155 409.901 271.529 407.984Z" fill="black"/>
</g>
<path d="M304.755 560.077C290.698 596.822 304.755 624.94 283.67 628.775C274.085 630.692 269.932 623.343 268.015 615.355C265.779 605.45 267.376 594.266 267.376 594.266C267.376 594.266 270.891 585.32 278.558 576.373C284.628 568.704 293.254 561.675 304.755 560.077Z" fill="#155BCC"/>
<path d="M255.875 605.449C255.875 614.076 253.958 621.425 249.805 625.26C249.485 625.579 249.166 625.899 248.527 626.218C238.623 634.206 232.233 619.508 232.233 619.508C232.233 619.508 205.716 606.408 192.937 580.207C183.033 560.077 180.797 531.639 204.119 495.533C207.633 521.415 221.691 538.988 235.748 555.604C237.345 557.84 239.262 559.757 240.859 561.675C251.083 573.497 256.194 591.39 255.875 605.449Z" fill="#2568EF"/>
<g opacity="0.53">
<path opacity="0.53" d="M204.439 495.533C202.202 506.717 201.563 518.219 202.522 529.403C203.8 540.586 206.675 551.769 212.745 561.355C218.496 570.941 226.802 578.929 234.15 587.556C237.665 592.029 241.498 596.503 243.735 601.935C246.291 607.047 247.249 613.118 246.93 619.189C246.93 619.828 246.291 620.467 245.652 620.467C245.013 620.467 244.374 619.828 244.374 619.189C245.013 613.757 244.054 608.325 241.818 603.213C239.581 598.1 236.387 593.627 232.872 589.154C225.844 580.527 217.537 572.219 211.787 562.314C205.717 552.408 202.841 541.225 201.883 529.722C201.244 517.9 201.883 506.717 204.439 495.533Z" fill="black"/>
</g>
<g opacity="0.25">
<path opacity="0.25" d="M304.755 560.077C300.602 564.87 297.088 569.663 293.574 574.456C290.059 579.568 286.545 584.68 283.67 589.793C277.6 600.337 272.488 611.52 270.891 623.662C270.891 624.301 270.252 624.94 269.293 624.621C268.654 624.621 268.015 623.982 268.335 623.023C270.571 610.562 276.322 599.379 282.711 588.834C285.906 583.722 289.42 578.61 293.254 573.817C296.449 569.024 300.602 564.55 304.755 560.077Z" fill="black"/>
</g>
<path d="M296.13 624.301L287.184 679.259C286.865 681.496 284.628 683.094 282.392 683.094H226.802C224.566 683.094 222.329 681.496 222.01 679.259L214.662 634.526L213.065 624.301C212.426 621.426 214.662 618.55 217.857 618.55H291.337C294.532 618.55 296.768 621.106 296.13 624.301Z" fill="url(#paint3_linear_201_19)"/>
<path d="M304.755 635.485H204.439L206.994 620.467C207.633 617.272 210.189 615.035 213.384 615.035H295.491C298.685 615.035 301.241 617.272 301.88 620.467L304.755 635.485Z" fill="#383873"/>
<path opacity="0.25" d="M267.376 593.947C267.376 593.947 266.098 605.13 268.015 615.035H254.916C255.555 612.159 255.875 608.964 255.875 605.449C255.875 591.071 250.763 573.177 241.179 561.675C239.581 559.758 237.665 557.521 236.067 555.604C236.387 547.616 237.984 538.03 242.776 526.527C243.415 539.628 246.929 562.633 260.028 565.189C269.932 567.107 283.031 557.201 292.935 547.616C287.823 557.201 282.711 566.787 278.558 576.053C270.891 585 267.376 593.947 267.376 593.947Z" fill="black"/>
<path opacity="0.25" d="M260.028 683.094H226.802C224.566 683.094 222.329 681.496 222.01 679.259L214.981 635.485H243.735C243.096 641.556 242.137 653.058 244.374 662.005C245.652 669.035 252.041 677.981 260.028 683.094Z" fill="black"/>
<path d="M511.779 230.648H369.291C362.262 230.648 356.511 224.897 356.511 217.867V112.105C356.511 105.076 362.262 99.3242 369.291 99.3242H511.779C518.807 99.3242 524.558 105.076 524.558 112.105V218.187C524.558 225.216 519.127 230.648 511.779 230.648Z" fill="#383873"/>
<path d="M576.953 110.508C582.384 110.508 583.662 106.993 583.662 103.798C583.662 100.922 583.343 98.3656 583.023 95.4899C582.704 92.6142 582.384 90.058 582.384 86.8628C582.384 78.2357 587.815 74.4014 594.524 74.4014H595.802V79.5137H594.205C590.052 79.5137 588.454 82.3895 588.454 86.8628C588.454 89.419 588.774 91.9752 589.093 94.2118C589.413 96.768 589.732 99.0047 589.732 101.241C589.732 108.91 587.176 111.466 583.023 112.744V113.064C587.176 114.342 589.732 116.898 589.732 124.567C589.732 127.123 589.413 129.359 589.093 131.916C588.774 134.472 588.454 136.708 588.454 139.265C588.454 143.738 590.052 146.614 594.205 146.614H595.483V151.726H594.205C587.815 151.726 582.065 148.531 582.065 139.265C582.065 136.389 582.384 133.513 582.704 130.637C583.023 127.762 583.343 124.886 583.343 122.33C583.343 119.135 582.065 115.3 576.633 115.3V110.508H576.953Z" fill="#383873"/>
<path d="M675.672 115.3C670.241 115.3 668.963 119.135 668.963 122.33C668.963 124.886 669.283 127.762 669.602 130.637C669.922 133.513 670.241 136.389 670.241 139.265C670.241 148.531 664.491 151.726 658.101 151.726H656.823V146.614H658.101C662.574 145.975 663.852 143.738 663.852 139.265C663.852 136.708 663.532 134.152 663.213 131.916C662.893 129.359 662.574 127.123 662.574 124.567C662.574 116.898 665.13 114.342 669.283 113.064V112.744C665.13 111.466 662.574 108.91 662.574 101.241C662.574 99.0047 662.893 96.4485 663.213 94.2118C663.532 91.9752 663.852 89.419 663.852 86.8628C663.852 82.3895 662.254 80.1528 658.101 79.5137H656.504V74.4014H657.781C664.81 74.4014 669.922 78.2357 669.922 86.8628C669.922 89.7385 669.602 92.6142 669.283 95.4899C668.963 98.0461 668.644 100.922 668.644 103.798C668.644 106.993 669.922 110.508 675.353 110.508V115.3H675.672Z" fill="#383873"/>
<path d="M642.446 122.33V103.797L626.472 94.5312L610.179 103.797V122.33L626.472 131.915L642.446 122.33Z" fill="#9BD637"/>
<path d="M763.849 215.311C748.514 207.643 730.304 210.838 718.483 222.66C703.787 237.359 703.148 261.323 716.885 276.66L710.815 276.021C710.176 276.021 709.537 276.34 709.218 277.299C709.218 277.938 709.537 278.577 710.496 278.897L719.441 279.855C719.761 279.855 720.08 279.855 720.4 279.536C720.719 279.216 720.719 278.897 721.039 278.577L721.997 269.95C721.997 269.311 721.678 268.672 720.719 268.352C720.08 268.352 719.441 268.672 719.122 269.63L718.483 275.062C705.704 260.684 706.023 238.317 719.761 224.578C730.942 213.394 747.875 210.519 762.252 217.548C762.891 217.868 763.529 217.548 763.849 216.909C764.807 216.589 764.488 215.631 763.849 215.311Z" fill="#9BD637"/>
<path d="M729.984 287.843C745.319 295.512 763.529 292.317 775.35 280.494C790.046 265.796 790.685 241.832 776.948 226.495L783.018 227.134C783.657 227.134 784.296 226.814 784.615 225.856C784.615 225.217 784.296 224.578 783.337 224.258L774.392 223.3C774.072 223.3 773.753 223.3 773.433 223.619C773.114 223.939 773.114 224.258 772.794 224.578L771.836 233.205C771.836 233.844 772.155 234.483 773.114 234.802C773.753 234.802 774.392 234.483 774.711 233.524L775.35 228.092C788.129 242.471 787.81 264.838 774.072 278.577C762.891 289.76 745.958 292.636 731.581 285.607C730.942 285.287 730.304 285.607 729.984 286.246C729.026 286.565 729.345 287.524 729.984 287.843Z" fill="#9BD637"/>
<path d="M1079.82 361.014H843.08C838.607 361.014 835.413 357.499 835.413 353.345C835.413 348.872 838.927 345.677 843.08 345.677H1079.82C1084.29 345.677 1087.48 349.192 1087.48 353.345C1087.48 357.819 1083.97 361.014 1079.82 361.014Z" fill="#9BD637"/>
<path d="M995.153 395.203H843.08C838.607 395.203 835.413 391.688 835.413 387.534C835.413 383.061 838.927 379.866 843.08 379.866H995.153C999.626 379.866 1002.82 383.38 1002.82 387.534C1003.14 391.688 999.626 395.203 995.153 395.203Z" fill="#2568EF"/>
<path d="M995.153 431.629H843.08C838.607 431.629 835.413 428.114 835.413 423.96C835.413 419.487 838.927 416.292 843.08 416.292H995.153C999.626 416.292 1002.82 419.806 1002.82 423.96C1003.14 428.114 999.626 431.629 995.153 431.629Z" fill="#2568EF"/>
<path d="M240.54 231.288H117.859C113.387 231.288 110.192 227.773 110.192 223.619C110.192 219.146 113.706 215.95 117.859 215.95H240.859C245.332 215.95 248.527 219.465 248.527 223.619C248.527 227.773 245.013 231.288 240.54 231.288Z" fill="#2568EF"/>
<path d="M194.215 265.477H117.859C113.387 265.477 110.192 261.962 110.192 257.808C110.192 253.335 113.706 250.139 117.859 250.139H194.535C199.007 250.139 202.202 253.654 202.202 257.808C202.202 261.962 198.688 265.477 194.215 265.477Z" fill="#9BD637"/>
<path d="M194.215 301.902H117.859C113.387 301.902 110.192 298.388 110.192 294.234C110.192 289.76 113.706 286.565 117.859 286.565H194.535C199.007 286.565 202.202 290.08 202.202 294.234C202.202 298.388 198.688 301.902 194.215 301.902Z" fill="#9BD637"/>
<path d="M973.109 797.483C965.441 819.85 956.176 839.021 946.592 856.595C913.366 916.985 875.028 955.327 873.75 1011.88C873.75 1011.88 861.93 958.842 871.514 898.452C876.945 864.583 889.085 828.157 913.685 797.483C982.693 712.49 972.47 635.165 972.47 635.165C972.47 635.165 1007.29 698.75 973.109 797.483Z" fill="#155BCC"/>
<g opacity="0.25">
<path opacity="0.25" d="M891.641 946.061C890.683 939.032 891.002 932.002 891.641 925.292C892.28 918.582 893.558 911.553 895.475 904.843C898.989 891.423 904.101 878.642 910.171 866.5C913.046 860.429 916.561 854.358 920.075 848.607L931.257 831.352C938.285 819.85 944.355 807.708 949.467 794.927C954.579 782.465 958.732 769.365 962.246 756.264C965.761 743.164 968.955 729.744 971.192 716.324C973.428 702.904 975.345 689.484 975.984 675.745C976.304 669.035 976.623 662.005 976.304 655.295C975.984 651.78 975.984 648.585 975.345 645.07C974.706 641.875 974.067 638.36 972.47 635.165C974.067 638.041 974.706 641.556 975.345 645.07C975.984 648.585 976.304 651.78 976.304 655.295C976.623 662.005 976.623 669.035 976.304 675.745C975.665 689.484 974.067 702.904 971.831 716.324C969.594 729.744 966.719 743.164 963.205 756.264C959.691 769.365 955.537 782.465 950.745 795.246C945.953 808.027 939.883 820.489 932.854 832.311L921.992 849.565C918.478 855.317 914.963 861.388 912.088 867.459C906.018 879.6 900.906 892.381 897.711 905.482C896.114 911.872 894.836 918.582 894.197 925.292C893.558 932.002 893.239 938.712 894.197 945.422C894.197 946.061 893.878 946.7 893.239 947.02C892.6 947.02 891.961 946.7 891.641 946.061Z" fill="black"/>
</g>
<path opacity="0.25" d="M946.911 856.914C913.685 917.304 875.348 955.647 874.07 1012.2C874.07 1012.2 862.249 959.162 871.833 898.772C892.919 889.825 922.95 875.446 946.911 856.914Z" fill="black"/>
<path d="M892.919 1071.63C892.919 1071.63 868.639 1030.42 925.826 979.292C983.013 928.168 1027.74 861.068 1019.11 806.43C964.483 870.015 819.119 960.12 860.013 1071.63H892.919Z" fill="#2568EF"/>
<g opacity="0.25">
<path opacity="0.25" d="M1019.11 806.43C1013.68 818.572 1006.33 829.435 998.348 840.299C990.361 850.843 981.735 860.749 972.47 870.015C963.205 879.601 952.981 887.908 943.077 896.535C933.174 905.162 923.909 914.748 915.922 924.973C899.628 945.742 887.168 969.387 879.501 994.309C875.667 1006.77 873.111 1019.87 872.792 1032.97C872.472 1046.07 874.07 1059.17 879.181 1071.31C879.501 1071.95 879.181 1072.59 878.542 1072.91C877.904 1073.23 877.265 1072.91 876.945 1072.27C871.514 1059.81 869.917 1046.07 870.555 1032.97C871.194 1019.55 873.75 1006.45 877.584 993.67C885.571 968.428 898.35 944.783 914.963 924.014C923.27 913.79 932.535 904.204 942.758 895.577C952.981 887.269 963.205 878.961 972.47 869.376C981.735 860.11 990.68 850.204 998.667 839.66C1006.33 829.435 1013.68 818.572 1019.11 806.43Z" fill="black"/>
</g>
<path d="M432.453 240.156C430.578 240.156 428.938 240.047 427.531 239.828C426.094 239.641 424.875 239.406 423.875 239.125V227.031C424.875 227.25 425.953 227.453 427.109 227.641C428.234 227.859 429.438 227.969 430.719 227.969C432.406 227.969 433.922 227.641 435.266 226.984C436.609 226.359 437.672 225.156 438.453 223.375C439.234 221.594 439.625 219.031 439.625 215.688V151.469H454.156V215.594C454.156 221.469 453.234 226.203 451.391 229.797C449.578 233.422 447.031 236.047 443.75 237.672C440.5 239.328 436.734 240.156 432.453 240.156ZM511.859 200.969C511.859 205.031 510.875 208.562 508.906 211.562C506.938 214.562 504.062 216.875 500.281 218.5C496.531 220.125 491.969 220.938 486.594 220.938C484.219 220.938 481.891 220.781 479.609 220.469C477.359 220.156 475.188 219.703 473.094 219.109C471.031 218.484 469.062 217.719 467.188 216.812V203.312C470.438 204.75 473.812 206.047 477.312 207.203C480.812 208.359 484.281 208.938 487.719 208.938C490.094 208.938 492 208.625 493.438 208C494.906 207.375 495.969 206.516 496.625 205.422C497.281 204.328 497.609 203.078 497.609 201.672C497.609 199.953 497.031 198.484 495.875 197.266C494.719 196.047 493.125 194.906 491.094 193.844C489.094 192.781 486.828 191.641 484.297 190.422C482.703 189.672 480.969 188.766 479.094 187.703C477.219 186.609 475.438 185.281 473.75 183.719C472.062 182.156 470.672 180.266 469.578 178.047C468.516 175.797 467.984 173.109 467.984 169.984C467.984 165.891 468.922 162.391 470.797 159.484C472.672 156.578 475.344 154.359 478.812 152.828C482.312 151.266 486.438 150.484 491.188 150.484C494.75 150.484 498.141 150.906 501.359 151.75C504.609 152.562 508 153.75 511.531 155.312L506.844 166.609C503.688 165.328 500.859 164.344 498.359 163.656C495.859 162.938 493.312 162.578 490.719 162.578C488.906 162.578 487.359 162.875 486.078 163.469C484.797 164.031 483.828 164.844 483.172 165.906C482.516 166.938 482.188 168.141 482.188 169.516C482.188 171.141 482.656 172.516 483.594 173.641C484.562 174.734 486 175.797 487.906 176.828C489.844 177.859 492.25 179.062 495.125 180.438C498.625 182.094 501.609 183.828 504.078 185.641C506.578 187.422 508.5 189.531 509.844 191.969C511.188 194.375 511.859 197.375 511.859 200.969Z" fill="white"/>
</g>
<defs>
<linearGradient id="paint0_linear_201_19" x1="727.203" y1="613.322" x2="1242.66" y2="910.971" gradientUnits="userSpaceOnUse">
<stop stop-color="#2D2C33"/>
<stop offset="1" stop-color="#54535B"/>
</linearGradient>
<linearGradient id="paint1_linear_201_19" x1="576.337" y1="623.987" x2="1105.27" y2="985.006" gradientUnits="userSpaceOnUse">
<stop stop-color="#2D2C33"/>
<stop offset="1" stop-color="#54535B"/>
</linearGradient>
<linearGradient id="paint2_linear_201_19" x1="652.757" y1="925.421" x2="960.303" y2="1096.93" gradientUnits="userSpaceOnUse">
<stop stop-color="#2D2C33"/>
<stop offset="1" stop-color="#54535B"/>
</linearGradient>
<linearGradient id="paint3_linear_201_19" x1="217.89" y1="639.724" x2="320.956" y2="776.537" gradientUnits="userSpaceOnUse">
<stop stop-color="#2D2C33"/>
<stop offset="1" stop-color="#54535B"/>
</linearGradient>
<clipPath id="clip0_201_19">
<rect width="1107" height="1180" fill="white"/>
</clipPath>
</defs>
</svg>
